<!-- Generated by IcoMoon.io -->
<svg version="1.1" xmlns="http://www.w3.org/2000/svg" width="32" height="32" viewBox="0 0 32 32">
<path fill="none" stroke="#000" stroke-linejoin="miter" stroke-linecap="butt" stroke-miterlimit="4" stroke-width="1" d="M4.5 0.5h23v23h-23v-23z"></path>
<path fill="none" stroke="#00b068" stroke-linejoin="round" stroke-linecap="round" stroke-miterlimit="4" stroke-width="2" d="M16.778 15l-3.778-3.778"></path>
<path fill="none" stroke="#00b068" stroke-linejoin="round" stroke-linecap="round" stroke-miterlimit="4" stroke-width="2" d="M6 21.999c2 0 4.608 0.342 5.975-1.025s1.367-3.583 0-4.95c-1.367-1.367-3.583-1.367-4.95 0s0 3.975-1.025 5.975z"></path>
<path fill="none" stroke="#00b068" stroke-linejoin="round" stroke-linecap="round" stroke-miterlimit="4" stroke-width="2" d="M12 15.999c-0.491-0.491-0.737-0.737-0.876-0.994-0.333-0.617-0.319-1.364 0.038-1.967 0.149-0.252 0.404-0.488 0.914-0.96l9.868-9.137c0.869-0.805 2.219-0.779 3.056 0.059s0.864 2.187 0.059 3.057l-9.137 9.868c-0.472 0.51-0.708 0.765-0.96 0.914-0.604 0.357-1.35 0.371-1.967 0.038-0.257-0.139-0.503-0.385-0.995-0.876z"></path>
</svg>
